<!-- icon666.com - MILLIONS OF FREE VECTOR ICONS --><svg version="1.1" id="Capa_1" xmlns="http://www.w3.org/2000/svg" xmlns:xlink="http://www.w3.org/1999/xlink" x="0px" y="0px" viewBox="0 0 416.427 416.427" style="enable-background:new 0 0 416.427 416.427;" xml:space="preserve"><rect x="6.827" y="139.951" style="fill:#2A8EE6;" width="273.07" height="163.84"></rect><path d="M279.893,310.614H6.827c-3.773,0-6.827-3.053-6.827-6.827v-163.84c0-3.773,3.053-6.827,6.827-6.827h273.067 c3.773,0,6.827,3.053,6.827,6.827v163.84C286.72,307.561,283.667,310.614,279.893,310.614z M13.653,296.961h259.413V146.773H13.653 V296.961z"></path><polygon style="fill:#777777;" points="95.573,303.788 191.147,303.788 204.8,324.268 81.92,324.268 "></polygon><path d="M204.8,331.094H81.92c-2.521,0-4.833-1.386-6.019-3.606s-1.053-4.914,0.34-7.006l13.653-20.48 c1.266-1.901,3.4-3.041,5.68-3.041h95.573c2.28,0,4.413,1.14,5.68,3.04l13.653,20.48c1.393,2.094,1.527,4.787,0.34,7.006 C209.632,329.705,207.321,331.094,204.8,331.094z M94.674,317.441h97.374l-4.553-6.827H99.227L94.674,317.441z"></path><rect x="300.37" y="92.161" style="fill:#777777;" width="109.23" height="225.28"></rect><path d="M409.6,324.268H300.373c-3.773,0-6.827-3.053-6.827-6.827V92.161c0-3.773,3.053-6.827,6.827-6.827H409.6 c3.773,0,6.827,3.053,6.827,6.827v225.28C416.427,321.214,413.373,324.268,409.6,324.268z M307.2,310.614h95.573V98.988H307.2 V310.614z"></path><path d="M402.773,139.948H307.2c-3.773,0-6.827-3.053-6.827-6.827s3.053-6.827,6.827-6.827h95.573c3.773,0,6.827,3.053,6.827,6.827 S406.547,139.948,402.773,139.948z"></path><path d="M402.773,174.081H307.2c-3.773,0-6.827-3.053-6.827-6.827s3.053-6.827,6.827-6.827h95.573c3.773,0,6.827,3.053,6.827,6.827 S406.547,174.081,402.773,174.081z"></path><path d="M402.773,208.214H307.2c-3.773,0-6.827-3.053-6.827-6.827s3.053-6.827,6.827-6.827h95.573c3.773,0,6.827,3.053,6.827,6.827 S406.547,208.214,402.773,208.214z"></path><rect x="341.33" y="269.651" style="fill:#85D839;" width="27.307" height="27.307"></rect><path d="M368.64,303.788h-27.307c-3.773,0-6.827-3.053-6.827-6.827v-27.307c0-3.773,3.053-6.827,6.827-6.827h27.307 c3.773,0,6.827,3.053,6.827,6.827v27.307C375.467,300.734,372.413,303.788,368.64,303.788z M348.16,290.134h13.653v-13.653H348.16 V290.134z"></path></svg>